<?xml version="1.0" encoding="UTF-8"?>
<svg id="Layer_2" data-name="Layer 2" xmlns="http://www.w3.org/2000/svg" viewBox="0 0 719.97 729.41">
  <defs>
    <style>
      .cls-1 {
        fill: #ffe0dd;
      }

      .cls-2 {
        fill: #ff4130;
      }
    </style>
  </defs>
  <g id="Layer_1-2" data-name="Layer 1">
    <path class="cls-2" d="m384.05,5.74c2.9,1.32,5.86,2.42,8.84,3.54,4.79,1.82,9.34,3.83,13.86,6.25,3.22,1.56,6.52,2.85,9.84,4.16,5.33,2.14,10.59,4.44,15.86,6.71,2.51,1.08,5.01,2.15,7.52,3.23.63.27,1.26.54,1.91.82,7.12,3.05,14.25,6.07,21.39,9.08,6.27,2.65,12.53,5.3,18.79,7.96,1.49.63,2.98,1.27,4.47,1.9,2.18.93,4.37,1.86,6.55,2.79q9.23,3.94,18.53,7.71c5.99,2.37,11.84,5.05,17.71,7.7,8.03,3.6,16.06,7.11,24.25,10.31,7.42,2.9,14.72,6.02,22,9.25,15.26,6.77,30.63,13.25,46.04,19.67,7.2,3,14.39,6.02,21.58,9.06,2.41,1.02,4.82,2.03,7.23,3.05,4.37,1.84,8.72,3.69,13.08,5.56,1.69.72,3.38,1.44,5.07,2.15,21.97,9.23,36.26,20.78,46.49,42.65,9.45,25.47,2.9,58.23-.36,84.49-.38,3.06-.73,6.13-1.08,9.2-1.66,14.15-3.55,28.15-7.37,41.89-1.4,5.21-2.55,10.47-3.74,15.72q-5.6,24.5-8.52,32.12c-1.57,4.11-2.79,8.27-3.98,12.5-1.58,5.48-3.27,10.78-5.49,16.04-1.3,3.14-2.46,6.33-3.63,9.52-2.82,7.6-5.83,15.11-8.88,22.62q-.66,1.65-1.34,3.33c-5.62,13.81-12.14,27.2-18.78,40.55-.34.69-.68,1.38-1.04,2.08-6.58,13.17-13.76,25.89-21.4,38.48-.99,1.65-1.98,3.3-2.96,4.95-9.33,15.5-19.47,30.24-30.3,44.73-1.64,2.2-3.28,4.42-4.91,6.63-6.29,8.52-12.87,16.7-19.82,24.69q-.95,1.1-1.93,2.23c-4.62,5.32-9.35,10.54-14.07,15.77-.63.72-1.27,1.43-1.92,2.17-5.68,6.38-11.59,12.49-17.64,18.52-.89.9-1.79,1.8-2.71,2.72-4.52,4.52-9.1,8.9-13.95,13.06-2.59,2.24-5.08,4.57-7.59,6.91-5.54,5.11-11.28,9.93-17.19,14.62-.51.41-1.01.81-1.54,1.23-15.54,12.46-31.5,24.32-48.46,34.77-.81.5-1.61,1-2.45,1.51q-66.48,40.76-99.68,33.18c-28.14-8.6-54.75-25.18-78.88-41.69-.73-.5-1.47-1-2.22-1.52-14.77-10.14-29.04-20.99-42.78-32.48-1-.83-2-1.65-3.03-2.5-11.17-9.28-21.75-19.19-31.97-29.5-2.95-2.96-5.91-5.9-8.89-8.82-7.06-6.96-13.96-13.84-20.08-21.65-2.21-2.75-4.56-5.32-6.97-7.91-4.41-4.81-8.42-9.84-12.34-15.05-1.85-2.45-3.75-4.86-5.69-7.24-8.04-9.95-15.26-20.38-22.34-31.02-.46-.69-.93-1.39-1.41-2.1-6.38-9.57-12.45-19.29-18.28-29.21-.53-.9-1.07-1.81-1.62-2.74-19.74-33.67-35.88-68.68-49.38-105.26-.25-.67-.5-1.35-.76-2.04q-10.57-28.61-13.49-41.64c-.76-3.37-1.7-6.64-2.69-9.94-2.03-6.98-3.63-14.04-5.2-21.14-1.2-5.4-2.5-10.76-3.92-16.11C2.63,265.33.12,232.56.02,201.02c0-.73-.01-1.45-.02-2.2-.07-12.82,1.19-25.56,7.46-36.98q.69-1.27,1.39-2.57c8.75-14.92,21.33-24.75,37.38-30.74,3.45-1.33,6.79-2.85,10.14-4.41,7.3-3.4,14.69-6.59,22.09-9.75,2.23-.95,4.47-1.91,6.7-2.87,8.21-3.51,16.43-6.97,24.7-10.34,3.65-1.49,7.27-3.03,10.85-4.69,7.69-3.55,15.5-6.82,23.29-10.15,3.98-1.7,7.96-3.41,11.93-5.11q27.98-12.01,40.85-17.4c3.72-1.56,7.43-3.13,11.13-4.71,1.14-.49,2.29-.97,3.47-1.47,2.22-.94,4.44-1.89,6.66-2.84,5.22-2.22,10.46-4.35,15.77-6.34,5.42-2.06,10.66-4.43,15.89-6.91,6.33-2.99,12.76-5.7,19.22-8.38,3.38-1.4,6.76-2.81,10.13-4.22.65-.27,1.3-.54,1.98-.82,6.05-2.53,12.05-5.14,18.04-7.81,2.65-1.15,5.31-2.24,8-3.3,3.9-1.55,7.77-3.16,11.63-4.82q1.63-.7,3.29-1.41c2.22-.95,4.44-1.91,6.66-2.87,19.42-8.3,35.51-11.64,55.4-2.16Z"/>
    <path class="cls-1" d="m396.46,296.84c.77.19,1.54.37,2.34.57,28.39,7.09,56.38,24.5,74.66,47.43.81,1,1.62,2,2.45,3.03,11.11,14.17,26.32,36.3,25.55,54.97h-7c.66.99,1.32,1.98,2,3q3.57.74,7,1c.33,2.64.66,5.28,1,8-1.11.16-2.22.32-3.37.48q-13.97,2.02-25.63,9.52c-.57,3.06-.53,5.94,0,9q2.13,2.96,5,5c.68.58,1.36,1.15,2.06,1.75,2,1.29,3.61,1.83,5.94,2.25v2c-.87.24-1.74.48-2.63.73-7.26,2.11-12.96,3.86-18.37,9.27-.76,3.45-.78,6.55,0,10,5.29,6.44,13.1,8.05,21,9-2.4,2.4-3.84,2.57-7.12,3.31-5.53,1.42-10.76,3.57-14.88,7.69-.51,4.34-.35,6.45,2,10.19,5.88,6.16,12.76,7.47,21,7.81-6.34,13.77-14.57,24.97-25,36-.75.81-1.49,1.62-2.26,2.46-22.99,24.13-58.1,39.72-91.4,40.93-3.84.08-7.68.08-11.53.05-.81,0-1.62,0-2.45-.01-38.85-.25-72.51-14.57-100.36-41.43-.79-.73-1.58-1.45-2.39-2.2-10.03-9.48-17.98-21.74-24.61-33.8v-2c1.26-.04,2.52-.08,3.81-.12,6.1-.66,11.18-3.43,16.19-6.88,2.01-3.01,2.36-3.98,2.5-7.44.05-.76.1-1.52.16-2.31q-.51-2.53-3.16-4.4c-3.93-2.09-7.55-3.15-11.87-4.11q-1.1-.26-2.23-.52c-1.8-.42-3.59-.82-5.39-1.23v-2q1.14-.11,2.31-.23c7.49-.95,12.95-2.76,18.69-7.77,1.76-3.51,1.66-7.18,1-11-5.34-6.49-14.85-9.12-23-10v-2c1.2-.39,2.39-.78,3.62-1.19,4.65-1.74,9.07-4.21,11.38-8.81.54-3.23.81-4.94,0-8-6.13-8.08-19.74-8.49-29-10,.33-2.97.66-5.94,1-9l6.74.29q2.69-.12,5.26-3.29-5.45.5-11,1c4.17-27.7,20.93-51.37,40-71,.72-.75,1.44-1.49,2.18-2.26,18.54-17.88,42.03-28.9,66.82-34.74.76-.18,1.52-.36,2.3-.54,22.38-5,46.54-3.95,68.7,1.54Z"/>
    <path class="cls-1" d="m207.21,104.96q2.25.88,3.25,1.88c.14,2.21.23,4.42.31,6.62.95,17.48,7.43,35.22,17.69,49.38l1.95,2.73c12.63,16.56,29.46,24.65,49.05,30.27v-2q-.8-.4-1.62-.81l-8.38-4.19c1.89-5.67,8.88-8.32,14-11,10.3-4.93,20.96-9.08,32-12,.86-.23,1.72-.47,2.61-.71,7.22-1.9,14.35-3.14,21.76-3.98q1.65-.19,3.34-.38c24.49-2.66,49.11.74,72.29,9.07.76.24,1.53.48,2.32.72,9.77,3.21,18.71,8.33,27.68,13.28,1.01.56,2.03,1.11,3.07,1.68.64.43,1.27.87,1.93,1.32v2c-.57.27-1.13.53-1.71.8-.73.35-1.47.71-2.22,1.07-.73.35-1.46.7-2.21,1.05q-2.01.94-2.85,3.07c25.16-7.14,43.02-19.91,56-43,.49-.85.97-1.7,1.47-2.57,5.98-11.65,7.87-26.01,8.16-38.99q.37-2.43,1.59-4.34,1.79-1.1,4.29-1.03c4.57,1.7,6.19,5.84,8.5,9.93.43.74.87,1.47,1.32,2.23,13.59,26.08,10.59,59.44,2.16,86.58-5.82,17.78-14.1,37.69-29.47,49.19-2.37,1.18-3.81,1.1-6.44,1.06-.78,0-1.56-.02-2.37-.03-.72-.01-1.45-.02-2.19-.04h-3c3.95,3.16,6.63,4.65,11.91,4.41,3.13-.61,5.68-1.95,8.43-3.53q1.66-.88,3.66-.88c12.45,33.61,15.41,68.55,4,103-.75,2.46-1.5,4.92-2.25,7.38-.58,1.88-1.16,3.75-1.75,5.62h-3c-.59-1.14-1.19-2.27-1.8-3.45-11.93-22.41-29.97-45.94-53.2-57.55,1.66-3.56,3.75-6.76,5.88-10.06,3.61-5.74,6.19-11.44,8.12-17.94q.32-1.04.64-2.11c1.03-3.69,1.55-7.32,1.91-11.14.09-.89.17-1.79.26-2.7.06-.68.13-1.35.19-2.05-.77.26-1.53.52-2.33.79-13.87,4.71-27.76,9.34-41.8,13.52-1,.3-2,.6-3.04.91-2.08.61-4.16,1.2-6.25,1.78-2.63.73-5.22,1.5-7.82,2.31-14.8,4.37-29.35,4.6-44.7,4.5-1.31,0-2.62,0-3.97,0-18.35-.08-34.69-.95-51.94-7.62-4.71-1.78-9.52-3.23-14.32-4.72-5.63-1.76-11.23-3.62-16.83-5.47-1.67-.55-3.34-1.1-5.02-1.64q-9.59-3.16-11.98-4.36c2.85,17.02,7.83,30.38,17,45-.45.33-.89.66-1.35,1-23.52,17.49-41.04,35.85-54.65,62-15.44-23.16-14.75-63.93-9.88-89.88,1.94-9.51,4.67-18.37,8.88-27.12q4.75,1.88,7,3c7.21.73,12.07.22,18-4-.99.33-1.98.66-3,1q-2.27.24-4.81.31-1.25.06-2.52.11c-7.84-1.25-12.88-8.65-17.39-14.63-19.83-27.82-28.25-65.15-23.28-98.8q.5-.49,1-1c.33-1.85.61-3.7.88-5.56.84-5.17,1.96-9.68,4.12-14.44.37-.84.75-1.67,1.13-2.54q5.92-12.6,11.62-12.34Z"/>
    <path class="cls-1" d="m236.46,425.84c.99.66,1.98,1.32,3,2-1.23,3.82-3.53,5.17-6.95,7.07-4.77,2.16-8.8,3.1-14.06,3.16-8.84.1-14.51,1.88-21.99,6.77-1.39.67-2.78,1.31-4.19,1.94-11.81,5.89-19.24,17.58-25.58,28.71-2.4,4.17-5.06,7.73-8.23,11.35,3.53-3.44,6.74-6.99,9.88-10.81.88-1.06,1.76-2.13,2.64-3.19.82-.99,1.64-1.98,2.48-3,10.71-12.89,19.14-18.34,36-20,13.53-.82,24.65,1.62,37,7q0,4-1.69,6.12c-6.2,5.02-13.25,4.22-20.86,4.27-6.02.15-10.69,1.12-16.18,3.62-3.08,1.33-6.21,2.11-9.47,2.89-2.75,1.67-2.84,4.1-3.81,7.1q-2.1,2.54-4.62,5.06-9.31,9.78-13.38,21.94c.51-.65,1.02-1.31,1.55-1.98,4.3-5.4,8.76-10.57,13.58-15.52.48-.5.96-1.01,1.45-1.53,7.4-7.44,17.62-9,27.74-9.22,3.92.09,7.01.81,10.69,2.25,1.31.33,2.62.64,3.94.94,3.92.94,7.4,2.38,11.06,4.06v4c-5.76,5.6-11.06,6.19-18.69,6.31-7.22.3-13.65.71-19.31,5.69-2.7,3.49-4.88,7.14-7,11-.33.33-.66.66-1,1,.09,2.02.25,4.05.44,6.06.1,1.1.2,2.21.31,3.35.08.85.17,1.71.25,2.59h2c.12-1.11.25-2.23.38-3.38q.62-3.62,2.62-5.62c6.36.25,11.97,2.26,16.7,6.54,8.61,9.5,10.13,19.72,9.54,32.15-1.06,10.42-6.65,19.46-14.55,26.01-5.31,4.09-10.28,4.78-16.87,4.7-9.82-1.42-18.52-8.14-24.65-15.65-9.05-12.32-12.9-25.06-16.17-39.75-.18-.79-.36-1.58-.55-2.4-1.18-5.21-2.1-10.42-2.89-15.71q-.5-2.95-1.61-5.87c-1.55-4.95-1.16-9.83-1.01-14.97.04-1.39.07-2.79.08-4.18.15-11.67,2.02-21.89,5.97-32.87.23-.66.46-1.31.69-1.99,2.95-8.31,5.93-14.09,13.31-19.01q.79-.54,1.6-1.09c20.01-13.57,37.46-16.76,60.4-7.91Z"/>
    <path class="cls-1" d="m520.58,451.9c.86.18,1.73.36,2.62.54,8.71,2.14,14.09,7.51,19.51,14.46,3.61,4.53,7.29,8.98,11.06,13.38.5.59,1.01,1.18,1.53,1.79,2.09,2.44,4.18,4.79,6.45,7.06,2.88,2.9,2.92,5.04,3.02,9.03-.05,5.7-1.27,10.18-3.11,15.53-2.11,6.69-3.09,13.71-4.28,20.6-3.02,16.8-9.76,35.04-23.77,45.72-7.71,5.02-13.87,7.89-23.15,6.83-7.99-1.99-13.74-5.95-18.21-12.88-1.08-2-1.95-4.01-2.79-6.12-.3-.72-.6-1.43-.91-2.17-3.67-10.16-3.7-22.49.59-32.43,4.21-7.67,9.96-12.6,18.32-15.4q2.69-.23,5,0c2.4,2.24,2.96,3.46,3.19,6.75-.06.74-.12,1.49-.19,2.25h2c1.39-5.73,2.07-10.13-.94-15.4-1.6-2.16-3.3-4.16-5.06-6.2q-2-2.4-2-4.4-1.36-.19-2.75-.38-3.25-.62-5.19-1.65c-2.3-1.09-3.8-1.22-6.33-1.21-.81-.02-1.62-.03-2.45-.05-1.67-.02-3.35-.02-5.02-.02-6.11-.15-10.63-1.56-15.26-5.7q-1-2.81-1-5c11.33-7.52,25-8.16,38-6,12.8,3.01,23.75,13.72,31.32,24.21q1.68,2.79,1.68,4.79h2c-3.91-8.78-8.66-15.8-15-23-1.08-1.27-2.17-2.54-3.25-3.81-.48-.54-.95-1.08-1.45-1.63q-1.3-1.55-3.43-4.74c-3.07-3.78-7.51-4.65-12.04-5.95q-2.84-.86-4.71-1.9c-2.51-1.13-4.3-1.2-7.05-1.2q-1.42-.02-2.86-.05c-1.96-.02-3.93-.02-5.89-.02-6.47-.14-11.56-1.03-16.33-5.7q-1-2.81-1-5c16.32-7.99,31.44-8.86,49.12-4.94Z"/>
    <path class="cls-2" d="m280.46,459.84c3.61.57,5.04,1.81,7.44,4.5,16.58,17.14,40.34,26.23,63.88,26.65q19.12.29,37.8-3.21c.72-.21,1.44-.43,2.18-.65,15.05-4.73,28.38-12.69,39.63-23.68q3.76-3.61,7.07-3.61c-.49,11.16-8.54,19.39-16,27q-.89.92-1.79,1.87c-19.02,18.22-44.5,21.9-69.66,21.41-7.19-.24-13.68-.99-20.54-3.28q-1.8-.59-3.63-1.18c-18.07-6.34-34.29-18.74-44.16-35.26-1.7-3.62-2.13-6.57-2.2-10.56Z"/>
    <path class="cls-1" d="m507.52,420.4c.92-.02,1.84-.04,2.79-.07,11.51.04,19.84,5.23,29.14,11.5.94.55,1.89,1.1,2.86,1.67,12.59,7.88,16.92,22.35,20.3,36.16,1.19,5.46,2.42,11.99-.16,17.17-3.31-1.38-4.82-2.76-6.73-5.78q-.73-1.13-1.48-2.29c-.51-.8-1.01-1.6-1.54-2.43-10.73-16.52-22.13-30.61-41.25-37.5-4.39-.82-8.7-.88-13.16-.86-6.33.03-11.97-.65-16.84-5.14q-1.24-2.67-2-5c8.43-6.61,17.66-7.29,28.06-7.44Z"/>
    <path class="cls-2" d="m243.33,434.82c-3.11,3.79-6.21,6.29-10.88,8.02h-4v2c.61.01,1.21.03,1.84.04,8.15.46,14.06,3.22,20.79,7.71,2.22,3.63,2.22,7.14,1.38,11.25-3.25,4.3-7.84,7.74-12.88,9.75-3.38.4-6.72.31-10.12.25v2c1.98,0,6,1.98,6,3-3.56.75-6.82,1.01-10.44.88-13.29-.12-24.51,2.99-34,12.19-4.59,4.68-8.74,9.66-12.79,14.82q-1.78,2.12-3.78,3.12c2.89-11.03,9.73-18.74,17.32-27q1.89-2.1,3.37-5.38c2.31-4.62,6.16-5.63,10.81-7.19.73-.23,1.46-.46,2.22-.69q2.32-.72,4.61-1.77c2.77-1.01,4.83-1.24,7.77-1.28q1.42-.04,2.88-.08c1.98-.04,3.95-.07,5.93-.09,6.37-.18,10.92-.87,15.98-5.08q1.33-1.4,1.12-3.44c-16.94-7.38-34.53-9.76-52.53-4.22-12.03,4.79-19.82,16.07-27.61,25.88-2.25,2.82-4.55,5.59-6.87,8.34l-2-1q.84-1.07,1.69-2.17c4.14-5.41,8-10.8,11.5-16.64,6.39-10.58,13.96-18.8,25.34-23.99q2.47-1.12,4.52-2.58c5.79-3.91,10.87-4.06,17.64-4.24,6.94-.24,12.86-1.73,18.46-6.01q1.86-1.37,3.86-1.37.19-.96.38-1.94c.21-.68.41-1.36.62-2.06,2-1,3.71,5.75,1.88,8.98Z"/>
    <path class="cls-2" d="m312.72,377.57c6.03-.41,9.47.58,14.05,4.57,4.19,4.18,5.93,7.14,6.2,13.07-.25,6.05-1.74,10.73-5.96,15.16-4.69,4.1-8.08,5.92-14.39,5.71-5.64-.64-9.7-2.36-13.52-6.62-3.94-5.15-5.2-9.5-5.07-15.99.98-5.74,4.51-10.12,9.01-13.64,3.29-1.35,6.17-1.85,9.7-2.27Z"/>
    <path class="cls-2" d="m411.77,378.53c6.07,2.74,10.06,7.16,12.69,13.3,1.04,6.42-.3,11.7-4,17-4.34,4.23-8.82,6.75-14.88,7.44-5.52-.25-9.95-2.36-13.93-6.16-4.86-5.48-5.67-9.91-5.61-17.2.83-6.21,4.7-9.49,9.1-13.58,5.43-2.46,10.92-2.52,16.62-.8Z"/>
    <path class="cls-2" d="m240.46,252.84c-3.28,2.91-5.58,4.68-10,5q-3.31-.44-6-1c.66-.66,1.32-1.32,2-2,.66.33,1.32.66,2,1v-2c1.62-.36,3.25-.71,4.88-1.06.9-.2,1.81-.39,2.74-.6q2.38-.34,4.38.66Z"/>
    <path class="cls-2" d="m220.53,402.74q1.24.02,2.5.04c.83,0,1.65.02,2.5.03.64.01,1.28.02,1.93.04q-1,3-3,4c-2,.04-4,.04-6,0-.33-.99-.66-1.98-1-3q1-1,3.07-1.1Z"/>
  </g>
</svg>