<?xml version="1.0" encoding="UTF-8"?>
<svg id="Layer_2" data-name="Layer 2" xmlns="http://www.w3.org/2000/svg" viewBox="0 0 696.88 703.59">
  <defs>
    <style>
      .cls-1 {
        fill: #ffe0dd;
      }

      .cls-2 {
        fill: #ff4130;
      }
    </style>
  </defs>
  <g id="Layer_1-2" data-name="Layer 1">
    <path class="cls-2" d="m363.28,2.66c.74.27,1.48.53,2.24.81,7.55,2.77,14.93,5.94,22.28,9.18,4.02,1.77,8.06,3.53,12.09,5.29.81.35,1.62.71,2.46,1.07,7.7,3.36,15.44,6.61,23.19,9.85,20.02,8.36,39.94,16.94,59.84,25.58,29.85,12.95,59.8,25.65,89.76,38.35,2.72,1.15,5.43,2.3,8.15,3.45.66.28,1.32.56,2.01.85,7.7,3.27,15.4,6.54,23.09,9.84.75.32,1.49.64,2.26.97,3.73,1.6,7.45,3.2,11.18,4.8,6.73,2.89,13.47,5.77,20.24,8.56,1.17.49,2.34.97,3.55,1.47,2.14.88,4.28,1.76,6.42,2.62,19.05,7.89,31.2,20.46,40.07,38.9,4.49,11.61,4.86,23.36,4.73,35.61,0,.83-.01,1.65-.02,2.5-.31,42.13-6.83,84.13-17.6,124.84-.79,3.01-1.53,6.03-2.27,9.05-1.35,5.4-2.91,10.7-4.62,15.99-.3.93-.6,1.86-.91,2.82-.98,3.02-1.97,6.04-2.97,9.05-.34,1.02-.68,2.05-1.02,3.11-21.34,64.22-53.06,124.69-94.98,177.89-.66.85-1.33,1.69-2.01,2.57-8.28,10.47-16.98,20.59-25.99,30.43-.88.97-1.76,1.94-2.66,2.95-5.72,6.29-11.59,12.41-17.59,18.43-.65.65-1.3,1.31-1.97,1.98-3.85,3.84-7.81,7.48-11.93,11.03-2.56,2.22-5.01,4.55-7.48,6.87-5.92,5.48-12.15,10.47-18.56,15.36-1.78,1.36-3.55,2.74-5.32,4.12-19.04,14.72-39.39,27.76-60.5,39.27-1.42.79-2.84,1.59-4.27,2.38-25.51,14.06-55.76,28.91-85.48,20.81-44.67-13.31-89.36-43.29-124.32-73.66-2.86-2.47-5.79-4.85-8.74-7.21-3.93-3.19-7.56-6.52-11.04-10.2-1.88-1.86-3.81-3.58-5.82-5.3-4.67-4.05-9.03-8.37-13.39-12.75q-1.15-1.14-2.31-2.3c-4.19-4.19-8.21-8.47-12.07-12.97-2.09-2.42-4.26-4.76-6.42-7.11-4.92-5.4-9.57-10.98-14.12-16.69q-.62-.77-1.25-1.56c-19.79-24.62-37.31-50.9-52.75-78.44-.55-.98-1.11-1.97-1.68-2.98-16.92-30.31-31.69-61.99-42.63-94.97-1.04-3.08-2.19-6.12-3.32-9.17-2.68-7.46-4.73-15.06-6.78-22.71-.89-3.25-1.84-6.49-2.78-9.73-1.29-4.47-2.43-8.91-3.32-13.47q-.45-2.03-1.44-4.11c-1.51-4.09-2.1-8.25-2.8-12.55-1.18-7.08-2.39-14.15-3.74-21.2C2.7,254.23.25,226.78.04,198.29c-.01-.96-.02-1.93-.04-2.92-.22-20.85,4.47-36.26,18.47-52.27q.83-.96,1.68-1.93c9.75-10.47,23.24-15.31,36.13-20.69,1.89-.8,3.77-1.59,5.65-2.39,3.76-1.59,7.53-3.18,11.29-4.77,7.06-2.98,14.09-6.03,21.12-9.09,12.96-5.63,25.95-11.2,38.94-16.76,3-1.29,6-2.58,9-3.87,8.72-3.75,17.44-7.48,26.24-11.03,3.75-1.52,7.44-3.14,11.12-4.82,6.25-2.86,12.56-5.57,18.89-8.27,1.23-.53,2.46-1.05,3.69-1.58,14.43-6.17,28.89-12.28,43.35-18.37,11.93-5.03,23.83-10.12,35.7-15.27,6.29-2.73,12.59-5.45,18.89-8.16,1.53-.66,3.05-1.32,4.58-1.98,4.3-1.86,8.61-3.71,12.92-5.54,1.31-.56,2.61-1.12,3.92-1.68,13.98-6.05,26.9-9.66,41.69-4.23Z"/>
    <path class="cls-1" d="m198.48,144.1c1.79,1.79,1.22,4.58,1.31,7,1.78,26.86,13.41,51.8,33.66,69.64,8.14,6.34,17.32,10.89,27.02,14.36,1.54.58,3.08,1.17,4.62,1.75,1.11.41,2.23.82,3.38,1.25-2.87-4.08-5.43-6.03-10-8v-2c2.16-1.5,4.3-2.86,6.56-4.19.68-.4,1.36-.8,2.06-1.21,25.05-14.5,51.87-21.94,80.75-21.97.71,0,1.43,0,2.16,0,12.99,0,25.88.92,38.4,4.63.75.22,1.5.44,2.27.66,17.38,5.16,34.17,12.2,48.79,23.09-1.83,1.92-3.32,3.19-5.62,4.56q-2.49,1.22-3.38,3.44c26.24-9.03,45.37-21.57,58-47,5.56-12.28,8.13-24.73,9.27-38.08q.53-5.71,2.73-7.92,2.75-.19,6,1c12.91,12.91,15.26,36.39,15.38,53.56-.27,33-8.38,69.2-32.25,93.62q-4.94,4.72-8.54,5.01c-.88-.02-1.75-.05-2.65-.07-.88-.02-1.76-.04-2.66-.05-.75-.02-1.5-.05-2.28-.07h-2c6.75,3.31,11.66,3.89,18.94,1.5,1.36-.49,2.71-.99,4.06-1.5,15.98,25.21,15.63,63.79,9.75,92.06-.83,3.67-1.76,7.31-2.75,10.94q-.5,1.9-1.01,3.84c-.89,3.1-1.9,6.12-2.99,9.16-.39,1.16-.79,2.32-1.2,3.52-9.56,27.37-24.54,52.08-42.8,74.48-.81,1-1.63,2-2.46,3.03-11.83,14.27-24.84,27.73-39.82,38.71-1.78,1.32-3.53,2.67-5.28,4.02-11.8,9.06-24.55,16.23-38.12,22.3-.63.29-1.27.57-1.92.87-11.56,4.97-24.17,4.29-35.67-.27-18.46-8.08-35.6-19.35-50.71-32.66-.91-.8-1.83-1.61-2.77-2.43-12.63-11.37-24.83-23.12-34.94-36.82-1.32-1.79-2.67-3.56-4.02-5.32-7.12-9.39-13.34-19.24-19.27-29.43-.36-.61-.72-1.22-1.1-1.86-23.35-39.86-33.83-88.44-22.27-133.61,1.27-4.58,2.76-9.06,4.37-13.53.32-.91.65-1.82.98-2.75.65-1.76,1.33-3.51,2.02-5.25,2.37.92,4.67,1.82,6.9,3.05,3.62,1.64,7.22,1.53,11.1.95,2.36-1.1,3.97-2.33,6-4-.86.07-1.71.14-2.6.21q-10.51.5-14.09-2.34-1.58-1.67-3.31-3.88c-.78-.97-1.56-1.95-2.36-2.95-6.45-8.41-11.27-17.42-15.64-27.05-.55-1.17-1.09-2.34-1.65-3.54-12.89-29.59-14.73-66.72-3.74-97.17q6.76-15.97,15.39-15.29Z"/>
    <path class="cls-2" d="m255.48,432.1c1.29.85,2.58,1.71,3.88,2.56q1.25.83,2.52,1.67c1.64,1.12,3.27,2.26,4.87,3.45,3.78,2.79,7.43,5.26,11.75,7.12q11.04,4.8,13.91,9.06,1.2,3.08,2.14,6.16c1.78,5.64,5.46,11.07,9.94,14.98.99.33,1.98.66,3,1-.06-.95-.12-1.9-.19-2.88-.03-4.97,1.61-9.46,3.19-14.12,4.71.46,9.26,1.04,13.89,2.03,7.03,1.3,13.98,1.23,21.11,1.16,1.29,0,2.58,0,3.91,0,10.29-.05,20.21-.62,30.28-2.75.67-.14,1.33-.28,2.02-.42,1.6-.33,3.2-.67,4.79-1.02,2.14,6.21,3.37,11.43,3,18,6.38-2.9,10.74-8.79,13.25-15.2.41-1.11.82-2.22,1.25-3.36,3.46-7.97,9.11-10.17,16.63-13.56,7.37-3.48,13.87-8.42,19.87-13.88q.99.5,2,1c-13.81,30.99-31.44,65.29-65,79h-4q-1.63-2.19-3.12-5c-.91-1.69-1.86-3.37-2.88-5h-2c-.34,1.07-.68,2.14-1.02,3.25-.45,1.4-.9,2.79-1.35,4.19-.22.71-.44,1.41-.67,2.14-.59,1.83-1.27,3.63-1.95,5.42-3.51,1.75-7.51,1.18-11.38,1.19q-1.3.02-2.62.04c-.84,0-1.67,0-2.53,0-.76,0-1.52,0-2.31.01-2.49-.28-4.07-.88-6.17-2.24-1.01-3.06-1.52-6.09-2.09-9.25q-.63-2.88-3-4.12c-.63-.21-1.26-.41-1.91-.62-.29.72-.58,1.44-.88,2.19-1.04,2.6-2.08,5.21-3.12,7.81-15.81-1.47-30.61-16.64-40.61-28.08-10.44-12.74-28.39-34.78-28.39-51.92Z"/>
    <path class="cls-2" d="m242.48,346.1c6.19,1.86,11.67,4.24,17.31,7.38,11.6,6.28,23.58,11.7,35.57,17.19,2.66,1.23,5.32,2.48,7.96,3.75.68.33,1.36.65,2.06.99,1.68.81,3.35,1.62,5.02,2.43,3.66,1.51,7.22,2.39,11.08,3.27-2.81,8.01-8.66,12.57-16.06,16.38-10.09,4.85-21.56,7.04-32.4,3.49-3.01-1.45-5.76-3.02-8.54-4.87q-1.01-.67-2.05-1.35c-12-9.11-17.62-26.39-19.95-40.65-.19-2.73-.16-5.26,0-8Z"/>
    <path class="cls-2" d="m453.48,346.1c.97,16.03-3.25,31.5-13.28,44.19-3.15,3.32-6.73,5.61-10.72,7.81-.74.42-1.48.83-2.24,1.26-8.17,3.93-17.94,4.12-26.7,2.05-8.66-3.21-17.4-8.92-23.07-16.3-.37-1.32-.7-2.66-1-4,.95-.3,1.9-.6,2.88-.91,13.25-4.34,25.53-10.39,38-16.59,2.09-1.03,4.19-2.06,6.28-3.09,2.03-1,4.06-2,6.09-3,.92-.45,1.84-.91,2.78-1.37,5.67-2.82,11.23-5.8,16.75-8.91q2.22-1.12,4.22-1.12Z"/>
  </g>
</svg>